<?xml version="1.0" encoding="utf-8"?>
<!-- Generator: Adobe Illustrator 18.0.0, SVG Export Plug-In . SVG Version: 6.00 Build 0)  -->
<!DOCTYPE svg PUBLIC "-//W3C//DTD SVG 1.1//EN" "http://www.w3.org/Graphics/SVG/1.1/DTD/svg11.dtd">
<svg version="1.1" id="Layer_1" xmlns="http://www.w3.org/2000/svg" xmlns:xlink="http://www.w3.org/1999/xlink" x="0px" y="0px"
	 viewBox="0 0 516.7 178.7" enable-background="new 0 0 516.7 178.7" xml:space="preserve">
<rect x="140.8" y="0" fill="#FFFFFF" width="376" height="178.7"/>
<g>
	<path fill="#A7A9AC" d="M511.5,155.9c0,12.5-10.1,22.6-22.6,22.6H22.6C10.1,178.5,0,168.4,0,155.9V33.8c0-12.5,10.1-22.6,22.6-22.6
		h466.3c12.5,0,22.6,10.1,22.6,22.6V155.9z"/>
	<g id="PLAY">
		<defs>
			<path id="SVGID_1_" d="M110.8,84.4L87.8,71.1c0,0-42-24.3-44.5-25.7c-2.5-1.4-4.9-0.6-4.9,2.4c0,5,0,51.8,0,51.8s0,50.6,0,52.9
				c0,2.2,1.8,3.2,3.9,2c2.1-1.2,45.5-26.3,45.5-26.3l23.1-13.3c0,0,19.6-11.3,22.2-12.8c2.6-1.5,2.4-3.6,0.2-4.7
				C131,96.1,110.8,84.4,110.8,84.4z"/>
		</defs>
		<clipPath id="SVGID_2_">
			<use xlink:href="#SVGID_1_"  overflow="visible"/>
		</clipPath>
		<linearGradient id="SVGID_3_" gradientUnits="userSpaceOnUse" x1="66.9316" y1="42.9593" x2="66.9316" y2="156.263">
			<stop  offset="0" style="stop-color:#257CB0"/>
			<stop  offset="0.2863" style="stop-color:#4A93B5"/>
			<stop  offset="0.767" style="stop-color:#78BCBB"/>
			<stop  offset="1" style="stop-color:#89CFBD"/>
		</linearGradient>
		<polygon clip-path="url(#SVGID_2_)" fill="url(#SVGID_3_)" points="38.4,43 38.4,99.6 38.4,156.3 95.5,99.6 		"/>
		<linearGradient id="SVGID_4_" gradientUnits="userSpaceOnUse" x1="38.3647" y1="71.0796" x2="110.8442" y2="71.0796">
			<stop  offset="0" style="stop-color:#52C1AD"/>
			<stop  offset="1" style="stop-color:#DEE89A"/>
		</linearGradient>
		<polygon clip-path="url(#SVGID_2_)" fill="url(#SVGID_4_)" points="110.8,84.4 87.8,71.1 38.4,42.5 38.4,43 95.5,99.6 		"/>
		<linearGradient id="SVGID_5_" gradientUnits="userSpaceOnUse" x1="74.604" y1="99.6121" x2="74.604" y2="156.6741">
			<stop  offset="0" style="stop-color:#EC413D"/>
			<stop  offset="0.1668" style="stop-color:#DA4452"/>
			<stop  offset="0.5748" style="stop-color:#B0487A"/>
			<stop  offset="0.8619" style="stop-color:#954A92"/>
			<stop  offset="1" style="stop-color:#8A4A9D"/>
		</linearGradient>
		<polygon clip-path="url(#SVGID_2_)" fill="url(#SVGID_5_)" points="38.4,156.3 38.4,156.7 87.8,128.1 110.8,114.8 95.5,99.6 		"/>
		<linearGradient id="SVGID_6_" gradientUnits="userSpaceOnUse" x1="116.3493" y1="84.3952" x2="116.3493" y2="114.827">
			<stop  offset="0" style="stop-color:#F58879"/>
			<stop  offset="0.1194" style="stop-color:#F69079"/>
			<stop  offset="0.7128" style="stop-color:#FCB877"/>
			<stop  offset="1" style="stop-color:#FEC874"/>
		</linearGradient>
		<polygon clip-path="url(#SVGID_2_)" fill="url(#SVGID_6_)" points="110.8,84.4 95.5,99.6 110.8,114.8 137.2,99.6 		"/>
	</g>
	<g>
		<path fill="#F9F9F9" d="M398.1,121.8c-2.1,0-4.1-0.4-5.9-1.2c-1.8-0.8-3.3-2-4.5-3.7h-0.4c0.2,1.9,0.4,3.7,0.4,5.5V136h-5V88.2
			h4.1l0.7,4.5h0.2c1.3-1.8,2.8-3.1,4.5-3.9c1.7-0.8,3.7-1.2,5.9-1.2c4.4,0,7.7,1.5,10.1,4.5c2.4,3,3.6,7.2,3.6,12.6
			c0,5.4-1.2,9.6-3.6,12.6C405.7,120.3,402.3,121.8,398.1,121.8z M397.3,91.8c-3.4,0-5.8,0.9-7.3,2.8c-1.5,1.9-2.3,4.8-2.3,8.9v1.1
			c0,4.6,0.8,7.9,2.3,9.9c1.5,2,4,3,7.4,3c2.8,0,5.1-1.2,6.7-3.5c1.6-2.3,2.4-5.5,2.4-9.5c0-4.1-0.8-7.3-2.4-9.5
			C402.5,92.9,400.3,91.8,397.3,91.8z"/>
		<path fill="#F9F9F9" d="M423.3,121.2h-5V74.4h5V121.2z"/>
		<path fill="#F9F9F9" d="M452,121.2l-1-4.7h-0.2c-1.6,2.1-3.3,3.5-4.9,4.2c-1.6,0.7-3.7,1.1-6.1,1.1c-3.3,0-5.8-0.8-7.7-2.5
			c-1.9-1.7-2.8-4.1-2.8-7.2c0-6.7,5.3-10.1,16-10.5l5.6-0.2v-2c0-2.6-0.6-4.5-1.7-5.7c-1.1-1.2-2.9-1.8-5.3-1.8
			c-2.7,0-5.9,0.8-9.3,2.5l-1.5-3.8c1.6-0.9,3.4-1.6,5.3-2.1c1.9-0.5,3.9-0.8,5.8-0.8c3.9,0,6.8,0.9,8.7,2.6
			c1.9,1.7,2.8,4.5,2.8,8.4v22.5H452z M440.7,117.6c3.1,0,5.5-0.9,7.3-2.6c1.8-1.7,2.7-4.1,2.7-7.2v-3l-5,0.2
			c-4,0.1-6.8,0.8-8.6,1.9c-1.8,1.1-2.6,2.8-2.6,5.1c0,1.8,0.5,3.2,1.6,4.1C437.2,117.2,438.7,117.6,440.7,117.6z"/>
		<path fill="#F9F9F9" d="M458.6,88.2h5.3l7.2,18.8c1.6,4.3,2.6,7.4,2.9,9.3h0.2c0.3-1,0.8-2.8,1.6-5.2c0.8-2.5,3.6-10.1,8.2-22.8
			h5.4l-14.2,37.5c-1.4,3.7-3,6.3-4.9,7.9c-1.9,1.6-4.2,2.3-6.9,2.3c-1.5,0-3-0.2-4.5-0.5v-4c1.1,0.2,2.3,0.4,3.7,0.4
			c3.4,0,5.9-1.9,7.3-5.8l1.8-4.7L458.6,88.2z"/>
	</g>
	<g>
		<path fill="#F9F9F9" d="M305.6,91.3c1.6,1.3,4.9,4.1,4.9,9.3c0,5.1-2.9,7.5-5.8,9.8c-0.9,0.9-1.9,1.9-1.9,3.4c0,1.5,1,2.3,1.8,3
			l2.5,1.9c3,2.6,5.8,4.9,5.8,9.7c0,6.5-6.3,13-18.1,13c-10,0-14.8-4.8-14.8-9.9c0-2.5,1.2-6,5.3-8.4c4.3-2.6,10.1-3,13.2-3.2
			c-1-1.2-2.1-2.5-2.1-4.7c0-1.2,0.3-1.9,0.7-2.7c-0.8,0.1-1.5,0.1-2.2,0.1c-7.3,0-11.4-5.4-11.4-10.8c0-3.2,1.4-6.7,4.4-9.2
			c3.9-3.2,8.6-3.8,12.3-3.8h14.2l-4.4,2.5H305.6z M300.7,121.9c-0.6-0.1-0.9-0.1-1.6-0.1c-0.6,0-4.3,0.1-7.2,1.1
			c-1.5,0.5-5.9,2.2-5.9,7.1c0,4.9,4.8,8.4,12.1,8.4c6.6,0,10.1-3.2,10.1-7.4C308.2,127.4,306,125.6,300.7,121.9z M302.7,108.8
			c1.6-1.6,1.7-3.8,1.7-5c0-5-3-12.7-8.7-12.7c-1.8,0-3.7,0.9-4.8,2.3c-1.2,1.4-1.5,3.3-1.5,5.1c0,4.6,2.7,12.3,8.6,12.3
			C299.8,110.7,301.6,109.9,302.7,108.8z"/>
		<path fill="#F9F9F9" d="M262.2,120.8c-10.9,0-16.8-8.5-16.8-16.2c0-9,7.4-16.7,17.8-16.7c10.1,0,16.4,7.9,16.4,16.2
			C279.7,112.2,273.4,120.8,262.2,120.8z M270.8,115.2c1.7-2.2,2.1-5,2.1-7.6c0-6.1-2.9-17.6-11.4-17.6c-2.3,0-4.5,0.9-6.2,2.3
			c-2.7,2.4-3.2,5.4-3.2,8.4c0,6.8,3.4,18,11.7,18C266.5,118.7,269.2,117.4,270.8,115.2z"/>
		<path fill="#F9F9F9" d="M224.9,120.8c-10.9,0-16.8-8.5-16.8-16.2c0-9,7.4-16.7,17.8-16.7c10.1,0,16.4,7.9,16.4,16.2
			C242.4,112.2,236.1,120.8,224.9,120.8z M233.5,115.2c1.7-2.2,2.1-5,2.1-7.6c0-6.1-2.9-17.6-11.4-17.6c-2.3,0-4.5,0.9-6.2,2.3
			c-2.7,2.4-3.2,5.4-3.2,8.4c0,6.8,3.4,18,11.7,18C229.2,118.7,231.9,117.4,233.5,115.2z"/>
		<path fill="#F9F9F9" d="M202.9,119.7L193,122c-4,0.6-7.6,1.2-11.4,1.2c-19.1,0-26.4-14-26.4-25c0-13.4,10.3-25.9,27.9-25.9
			c3.7,0,7.3,0.6,10.6,1.5c5.2,1.5,7.6,3.2,9.1,4.3l-5.7,5.5l-2.4,0.6l1.7-2.8c-2.4-2.3-6.6-6.5-14.8-6.5
			c-10.9,0-19.2,8.3-19.2,20.4c0,13,9.4,25.2,24.5,25.2c4.4,0,6.7-0.9,8.8-1.7v-11.1l-10.4,0.6l5.5-3h14.7l-1.8,1.7
			c-0.5,0.4-0.6,0.6-0.7,1.1c-0.1,0.6-0.1,2.6-0.1,3.3V119.7z"/>
		<path fill="#F9F9F9" d="M327.5,117.7c-2.3-0.2-2.8-0.6-2.8-3.3v-0.8V75.2c0-0.1,0-0.3,0-0.4c0.3-2.4,1-2.8,3.1-4.1H318l-5.2,2.5
			h5.3v0l0,0v40.4v2.3c0,1.4-0.3,1.6-1.9,3.7h12.2l2.6-1.5C329.8,117.9,328.7,117.8,327.5,117.7z"/>
		<path fill="#F9F9F9" d="M355.6,118.3c-0.8,0.4-1.5,0.9-2.3,1.2c-2.3,1-4.6,1.3-6.7,1.3c-2.2,0-5.6-0.1-9.1-2.7
			c-4.9-3.4-7-9.3-7-14.5c0-10.6,8.7-15.9,15.7-15.9c2.5,0,5,0.6,7.1,1.9c3.4,2.3,4.3,5.2,4.8,6.8l-16.1,6.5l-5.3,0.4
			c1.7,8.7,7.6,13.8,14.2,13.8c3.5,0,6-1.2,8.4-2.4L355.6,118.3z M349.2,97.9c1.3-0.5,2-0.9,2-1.9c0-2.7-3.1-5.9-6.8-5.9
			c-2.8,0-7.9,2.1-7.9,9.5c0,1.2,0.1,2.4,0.2,3.6L349.2,97.9z"/>
		<g>
			<path fill="#F9F9F9" d="M362.3,88.3v4.5h-0.6v-4.5h-1.5v-0.5h3.5v0.5H362.3z"/>
			<path fill="#F9F9F9" d="M368.4,92.8v-4.6h0l-1.4,4.6h-0.4l-1.4-4.6h0v4.6h-0.5v-5h0.9l1.3,4h0l1.3-4h0.9v5H368.4z"/>
		</g>
	</g>
	<g>
		<path fill="#F9F9FA" d="M169,58.8h-3.4c0-0.5-0.3-1.8-1-4h-5c-0.7,2.2-1,3.5-1,4h-3.2c0-0.3,0.8-2.6,2.5-6.9
			c1.7-4.3,2.5-6.7,2.5-7.1h4.1c0,0.4,0.8,2.7,2.3,7C168.2,56.1,169,58.4,169,58.8z M164,52.7c-1.2-3.7-1.8-5.7-1.8-6H162
			c0,0.3-0.6,2.3-1.9,6H164z"/>
		<path fill="#F9F9FA" d="M182.8,58.8h-2.7c0-0.3-1-1.8-3-4.7c-2.1-3-3.2-5-3.5-6.1h-0.2c0.2,1.6,0.3,3,0.3,4.3c0,1.8,0,3.9,0.2,6.5
			h-2.6c0.1-2.2,0.2-4.7,0.2-7.3c0-2.6-0.1-4.8-0.2-6.7h3.2c0,0.4,0.9,1.9,2.7,4.5c1.9,2.8,3,4.7,3.2,5.7h0.2
			c-0.2-1.6-0.3-3-0.3-4.3c0-1.9-0.1-3.9-0.2-6h2.7c-0.1,1.8-0.2,4-0.2,6.7C182.7,54.1,182.7,56.6,182.8,58.8z"/>
		<path fill="#F9F9FA" d="M198.4,51.3c0,2-0.7,3.8-2,5.3c-1.3,1.5-3.1,2.3-5.5,2.3c-1.1,0-2.5,0-4.4-0.1c0.1-2.2,0.1-4.6,0.1-7.3
			c0-2.6,0-4.8-0.1-6.7h1.9c0.3,0,0.8,0,1.4,0c0.6,0,1,0,1.2,0c2.6,0,4.5,0.6,5.6,1.9C197.8,47.9,198.4,49.5,198.4,51.3z
			 M195.4,51.7c0-1.4-0.4-2.5-1.2-3.5c-0.8-0.9-2-1.4-3.7-1.4c-0.3,0-0.7,0-1.3,0.1c0.1,1.4,0.1,2.9,0.1,4.5c0,1.7,0,3.4,0.1,5.1
			c0.5,0.1,0.9,0.1,1.4,0.1c1.5,0,2.7-0.5,3.4-1.4C195.1,54.3,195.4,53.1,195.4,51.7z"/>
		<path fill="#F9F9FA" d="M212.7,58.8h-3.2c-0.8-2.5-1.5-4.1-1.9-4.7c-0.4-0.6-1.2-0.9-2.1-0.9c-0.4,0-0.8,0-1.2,0
			c0,1.8,0,3.7,0.1,5.6h-3c0.1-2.2,0.1-4.6,0.1-7.3c0-2.6,0-4.8-0.1-6.7h1.9c0.2,0,0.7,0,1.3,0c0.7,0,1.3,0,1.9,0
			c3.3,0,4.9,1.1,4.9,3.4c0,1.8-0.9,3-2.8,3.7V52c0.7,0.2,1.4,0.8,1.9,1.7C211.1,54.6,211.8,56.3,212.7,58.8z M208.7,48.9
			c0-1.4-0.9-2.1-2.8-2.1c-0.7,0-1.3,0.1-1.8,0.2c0.1,1.1,0.1,2.6,0.1,4.3c0.4,0,0.7,0,1,0C207.6,51.3,208.7,50.5,208.7,48.9z"/>
		<path fill="#F9F9FA" d="M228.1,51.5c0,2.2-0.7,4-2,5.5c-1.3,1.4-3,2.2-5,2.2c-1.9,0-3.5-0.7-4.7-2c-1.3-1.3-1.9-3-1.9-5.1
			c0-2.2,0.7-4,2-5.5c1.3-1.4,3-2.2,5-2.2c1.9,0,3.5,0.7,4.7,2C227.5,47.8,228.1,49.5,228.1,51.5z M225.2,51.8
			c0-1.5-0.4-2.7-1.1-3.6c-0.8-0.9-1.7-1.4-2.8-1.4c-1,0-1.9,0.5-2.7,1.4c-0.7,0.9-1.1,2.1-1.1,3.6c0,1.5,0.4,2.7,1.2,3.6
			c0.8,0.9,1.7,1.4,2.8,1.4c1,0,1.9-0.5,2.7-1.4C224.8,54.4,225.2,53.2,225.2,51.8z"/>
		<path fill="#F9F9FA" d="M234.2,58.8h-3c0.1-2.2,0.1-4.7,0.1-7.3c0-2.6,0-4.8-0.1-6.7h3c-0.1,1.8-0.1,4-0.1,6.7
			C234.1,54.1,234.1,56.6,234.2,58.8z"/>
		<path fill="#F9F9FA" d="M249.8,51.3c0,2-0.7,3.8-2,5.3c-1.3,1.5-3.1,2.3-5.5,2.3c-1.1,0-2.5,0-4.4-0.1c0.1-2.2,0.1-4.6,0.1-7.3
			c0-2.6,0-4.8-0.1-6.7h1.9c0.3,0,0.8,0,1.4,0c0.6,0,1,0,1.2,0c2.6,0,4.5,0.6,5.6,1.9C249.2,47.9,249.8,49.5,249.8,51.3z
			 M246.8,51.7c0-1.4-0.4-2.5-1.2-3.5c-0.8-0.9-2-1.4-3.7-1.4c-0.3,0-0.7,0-1.3,0.1c0.1,1.4,0.1,2.9,0.1,4.5c0,1.7,0,3.4,0.1,5.1
			c0.5,0.1,0.9,0.1,1.4,0.1c1.5,0,2.7-0.5,3.4-1.4C246.5,54.3,246.8,53.1,246.8,51.7z"/>
		<path fill="#F9F9FA" d="M270.4,58.8H267c0-0.5-0.3-1.8-1-4h-5c-0.7,2.2-1,3.5-1,4h-3.2c0-0.3,0.8-2.6,2.5-6.9
			c1.7-4.3,2.5-6.7,2.5-7.1h4.1c0,0.4,0.8,2.7,2.3,7C269.7,56.1,270.4,58.4,270.4,58.8z M265.5,52.7c-1.2-3.7-1.8-5.7-1.8-6h-0.2
			c0,0.3-0.6,2.3-1.9,6H265.5z"/>
		<path fill="#F9F9FA" d="M283,48.4c0,1.7-0.6,3-1.9,3.8c-1.3,0.8-2.8,1.2-4.7,1.2c-0.3,0-0.6,0-0.7,0c0,1.3,0,3.1,0.1,5.3h-3
			c0.1-2.1,0.1-4.5,0.1-7.3c0-2.6,0-4.8-0.1-6.7h1.9c0.3,0,0.8,0,1.5,0c0.8,0,1.4,0,2,0c1.4,0,2.5,0.3,3.4,0.9
			C282.5,46.3,283,47.2,283,48.4z M280.2,49c0-1.5-1-2.3-3.1-2.3c-0.5,0-1,0.1-1.6,0.2c0.1,1.4,0.1,2.9,0.1,4.6c0.2,0,0.4,0,0.6,0
			C278.9,51.5,280.2,50.7,280.2,49z"/>
		<path fill="#F9F9FA" d="M295.8,48.4c0,1.7-0.6,3-1.9,3.8c-1.3,0.8-2.8,1.2-4.7,1.2c-0.3,0-0.6,0-0.7,0c0,1.3,0,3.1,0.1,5.3h-3
			c0.1-2.1,0.1-4.5,0.1-7.3c0-2.6,0-4.8-0.1-6.7h1.9c0.3,0,0.8,0,1.5,0c0.8,0,1.4,0,2,0c1.4,0,2.5,0.3,3.4,0.9
			C295.4,46.3,295.8,47.2,295.8,48.4z M293.1,49c0-1.5-1-2.3-3.1-2.3c-0.5,0-1,0.1-1.6,0.2c0.1,1.4,0.1,2.9,0.1,4.6
			c0.2,0,0.4,0,0.6,0C291.8,51.5,293.1,50.7,293.1,49z"/>
		<path fill="#F9F9FA" d="M316.9,51.5c0,2.2-0.7,4-2,5.5c-1.3,1.4-3,2.2-5,2.2c-1.9,0-3.5-0.7-4.7-2c-1.3-1.3-1.9-3-1.9-5.1
			c0-2.2,0.7-4,2-5.5c1.3-1.4,3-2.2,5-2.2c1.9,0,3.5,0.7,4.7,2C316.3,47.8,316.9,49.5,316.9,51.5z M313.9,51.8
			c0-1.5-0.4-2.7-1.1-3.6c-0.8-0.9-1.7-1.4-2.8-1.4c-1,0-1.9,0.5-2.7,1.4c-0.7,0.9-1.1,2.1-1.1,3.6c0,1.5,0.4,2.7,1.2,3.6
			c0.8,0.9,1.7,1.4,2.8,1.4c1,0,1.9-0.5,2.7-1.4C313.6,54.4,313.9,53.2,313.9,51.8z"/>
		<path fill="#F9F9FA" d="M331.5,58.8h-2.7c0-0.3-1-1.8-3-4.7c-2.1-3-3.2-5-3.5-6.1h-0.2c0.2,1.6,0.3,3,0.3,4.3c0,1.8,0,3.9,0.2,6.5
			h-2.6c0.1-2.2,0.2-4.7,0.2-7.3c0-2.6-0.1-4.8-0.2-6.7h3.2c0,0.4,0.9,1.9,2.7,4.5c1.9,2.8,3,4.7,3.2,5.7h0.2
			c-0.2-1.6-0.3-3-0.3-4.3c0-1.9,0-3.9-0.2-6h2.7c-0.1,1.8-0.2,4-0.2,6.7C331.3,54.1,331.4,56.6,331.5,58.8z"/>
	</g>
</g>
</svg>
